/* XPM */
static char * tn5250_48x48_xpm[] = {
"48 48 105 2",
"  	c None",
". 	c #828284",
"+ 	c #868684",
"@ 	c #5A5A5C",
"# 	c #7E7E7C",
"$ 	c #CACACC",
"% 	c #C6C6C4",
"& 	c #C6C2C4",
"* 	c #C2C2C4",
"= 	c #BEBEBC",
"- 	c #BABABC",
"; 	c #BAB6B4",
"> 	c #B6B6B4",
", 	c #B6B2B4",
"' 	c #B2B2AC",
") 	c #AEAEAC",
"! 	c #AAAAAC",
"~ 	c #A6A6A4",
"{ 	c #A2A2A4",
"] 	c #A2A29C",
"^ 	c #9E9E9C",
"/ 	c #9A9A9C",
"( 	c #969694",
"_ 	c #92928C",
": 	c #8E8E8C",
"< 	c #8A8A8C",
"[ 	c #424244",
"} 	c #CAC6C4",
"| 	c #C2BEBC",
"1 	c #B2B2B4",
"2 	c #A6A2A4",
"3 	c #A29EA4",
"4 	c #929294",
"5 	c #C2C6C4",
"6 	c #7A7A74",
"7 	c #4A4A4C",
"8 	c #4E4E4C",
"9 	c #464A44",
"0 	c #464644",
"a 	c #3D3D3D",
"b 	c #404040",
"c 	c #7A7A7C",
"d 	c #020204",
"e 	c #060604",
"f 	c #000000",
"g 	c #E7E7E7",
"h 	c #979797",
"i 	c #BCBCBC",
"j 	c #B7B6B4",
"k 	c #C3C2C2",
"l 	c #191919",
"m 	c #7E7E84",
"n 	c #767674",
"o 	c #080808",
"p 	c #010103",
"q 	c #027204",
"r 	c #02CE04",
"s 	c #129614",
"t 	c #0BB20C",
"u 	c #005600",
"v 	c #02A604",
"w 	c #06C20C",
"x 	c #022604",
"y 	c #727274",
"z 	c #129A14",
"A 	c #1A7A1C",
"B 	c #025C04",
"C 	c #026C04",
"D 	c #028C02",
"E 	c #06BD0C",
"F 	c #0A220C",
"G 	c #727674",
"H 	c #6E6E6C",
"I 	c #061304",
"J 	c #6A6A6C",
"K 	c #BABEBC",
"L 	c #12A614",
"M 	c #007001",
"N 	c #006300",
"O 	c #016B02",
"P 	c #005C00",
"Q 	c #05AA05",
"R 	c #666A64",
"S 	c #666664",
"T 	c #626264",
"U 	c #5E5E5C",
"V 	c #AEB2B4",
"W 	c #625E64",
"X 	c #565654",
"Y 	c #565A54",
"Z 	c #525654",
"` 	c #A2A6A4",
" .	c #525254",
"..	c #4A4E4C",
"+.	c #4E4A4C",
"@.	c #D7D7D7",
"#.	c #9F9F9F",
"$.	c #BFBFBF",
"%.	c #B7B7B7",
"&.	c #A7A7A7",
"*.	c #8F8F8F",
"=.	c #7F7F7F",
"-.	c #6E726C",
";.	c #56565C",
">.	c #4E524C",
". . . + + . . . . . . . . . . . . . . . . . . . . . . . . . . . . . . . . . . . . . . . . . . @ ",
"# $ $ % & & * * = - - - ; > , ' ' ) ) ! ! ~ ! ~ { ] ] ^ ^ / / / ( ( ( _ _ : : < < < + + + . # [ ",
"# $ } $ & & * * | = = - ; > , 1 , ' ) ) ! ~ ! ~ ~ 2 2 ^ 3 ^ / / / ( ( 4 4 : _ : < < < + + . # [ ",
"+ $ $ % % 5 * | = = - - - ; > , 1 1 ) ) ) ! ~ ~ 2 { ] ] ^ ^ / / ( ( ( ( 4 _ : : < < < + + + 6 [ ",
". $ } [ [ [ [ [ [ 7 8 7 9 0 [ a a a a a a b a a a a a a a a a a a a a a a a a a a a a a # # c [ ",
". $ 5 [ d d d d d e d d d d d e d d d d d d d d d d d d d e d d d f f f f f f f f f f f # # 6 [ ",
"+ $ * [ d d d d d d d d d d d e d e d g h g i j d g k l d d d d d d d f f f f f f f f f m c n [ ",
". % * [ d d d d d d d d d d d f f f f f f f f f f o d d d d d d p f f f f f f f f f f f . c n [ ",
". % * [ d d d d d d d d d d d f f f f f f f f f f f f q r r r r s t s u u t q v v w f f . c n [ ",
". & = [ d d d d d d d d d d d f f f f f f f f f f f f d d d d d f x d e d d d d d d d d # 6 y [ ",
". * = [ d d d d d d d d d d d f f f f f f f f f f f f q r z t s A u u B C t q D E v f f m n y [ ",
". * - [ d d d d d d d d d d d f f f f f f f f f f f f d d d d d e f F d d d d d x f e d . n y [ ",
". * - [ d d d d d d d d d d d f f f f f f f f f f f f q r r s t r r s B q t q D E r f f . G H [ ",
". = - [ d d d d d d d d d d d f f f f f f f f f f f f d d d d d d e d d d d d d d d d d # y H [ ",
". - - [ d d d d d d d d d d d f f f f f f f f f f d d d d d d e d d d d d d d d d d I f # H H [ ",
". = > [ d d d d d f f f f d d d d d d d d d d d d d d d d d d d d d d d d d d d d d d d . y J [ ",
". K > [ d d d d f L r r M r N O O N O O N N O P M u d u D Q Q Q D d d d d d d d d d d d # H J [ ",
". - > [ d d d f f d d d f d d d d d d d f f f f f f d d d d d d d d d d d d d d d d d d . J R [ ",
"# - 1 [ d d d f f L r L M r r M M r r d N N O P M u f f f f f f f d d d d d d d d d d d . J S [ ",
". ; ' [ d d d d f d d d d d f d d d d d f f f f f f d d d d d d d d d d d d d d d d d d # H S [ ",
". > 1 [ d d f f f L L r L r r L L r r L N N O P M u d u D Q Q Q D d d d d d d d d d d d # J S [ ",
"# 1 ) [ d d d f d d f f f f f d d d d d f f f f f f d d d d d d d d d d d d d d d d d d . J T [ ",
". ' ) [ d d d d d L L r L r N N O P M u N N O P M u d u D Q Q Q D d d d d d d d d d d d # S T [ ",
"# 1 ) [ d d d d f d d d d d d d d d d d d d d d d d d d d d d d d d d d d d d d d d d d . T U [ ",
"# V ! [ d d d f f L L r L r r L L r r L N N O P M u d u D Q Q Q D d d d d d d d d d d d . T U [ ",
"m ) ! [ d d d d d d d d d d d d d d d d d d d d d d d d d d d d d d d d d d d d d d d d # T U [ ",
"# ) ! [ d d d d d d d d d d d d d d d d d d d d d d d d d d d d d d d d d d d d d d d d . W U [ ",
"# ! ~ [ d d d d d d d d d d d d d d d d d d d d d d d d d d d d d d d d d d d d d d d d # T @ [ ",
"# ! ~ [ d d d d d d d d d d d d d d d d d d d d d d d d d d d d d d d d d d d d d d d d # U @ [ ",
"# ! ] [ d d d d d d d d d d d d d d d d d d d d d d d d d d d d d d d d d d d d d d d d . U X [ ",
"# ! { [ d d d d d d d d d d d d d d d d d d d d d d d d d d d d d d d d d d d d d d d d . @ X [ ",
"c ~ ] [ d d d d d d d d d d d d d d d d d d d d d d d d d d d d d d d d d d d d d d d d # @ X [ ",
"c ~ { [ d d d d d d d d d d d d d d d d d d d d d d d d d d d d d d d d d d d d d d d d . Y Z [ ",
"# ` ^ [ d d d d d d d d d d d d d d d d d d d d d d d d d d d d d d d d d d d d d d d d # X  .[ ",
"c { ^ [ d d d d d d d d d d d d d d d d d d d d d d d d d d d d d d d d d d d d d d d d m @  .[ ",
"c { / [ d d d d d d d d d d d d d d d d d d d d d d d d d d d d d d d d d d d d d d d d .  .8 [ ",
"c { / [ d d d d d d d d d d d d d d d d d d d d d d d d d d d d d d d d d d d d d d d d .  .8 [ ",
"6 ^ / [ d d d d d d d d d d d d d d d d d d d d d d d d d d d d d d d d d d d d d d d d #  .8 [ ",
"c ^ / [ d d d d d d d d d d d d d d d d d d d d d d d d d d d d d d d d d d d d d d d d . 8 ..[ ",
"6 / ( [ d d d d d d d d d d d d d d d d d d d d d d d d d d d d d d d d d d d d d d d d #  .+.[ ",
"6 ^ ( [ d d d d d d d d d d d d d d d d d d d d d d d d d d d d d d d d d d d d d d d d # 8 7 [ ",
"6 / _ [ f @.#.$.d d d d d d d d d d d d d d f f f f %.$.&.$.*.=.&.@.=.f @.=.$.=.$.=.@.f . 8 7 [ ",
"n / _ [ d d d d d d d d d d d d d d d d d d f f f f f f f f f f f f f f f f f f f f f f # +.0 [ ",
"-.( 4 0 # # # # # # # # # # # # # # # # # # # # # # # # # # # # # # # # # # # # # # # # . 7 0 [ ",
"J ( : 4 : : < < + + + . . # # c c c n n G y -.H H J J S S S T T U U @ @ @ ;.X Z  .>.8 7 7 7 0 0 ",
"S 4 4 : : < : < < + . . # . # # c 6 n n y y H -.J H J R S T T T T U U @ Y X Z  .>.8 >.8 7 7 0 0 ",
"T ( 4 4 : < < < + + . . # # c c c n n n G y H H J R J S S T T U U U @ @ @ X X  . .8 8 ..7 7 0 0 ",
"@ 4 4 : : : < < + + + . . . # # c c n n y y -.H H J J R S S T T T U U @ @ ;.X X  . .8 7 ..7 0 0 "};
