/* XPM */
static char * tn5250_62x48_xpm[] = {
"62 48 83 1",
" 	c None",
".	c #838384",
"+	c #7E7E7D",
"@	c #5A5A5B",
"#	c #CAC6C4",
"$	c #CACACC",
"%	c #C6C6C4",
"&	c #C3C2C2",
"*	c #BCBCBC",
"=	c #B7B6B4",
"-	c #B2B2B2",
";	c #AEAEAC",
">	c #A9AAAC",
",	c #A6A6A4",
"'	c #A3A2A1",
")	c #9C9C9C",
"!	c #A29EA4",
"~	c #969694",
"{	c #929292",
"]	c #8C8C8C",
"^	c #3C3C3C",
"/	c #434344",
"(	c #AAA6A4",
"_	c #494A4B",
":	c #4E4E4C",
"<	c #7A7A7B",
"[	c #020204",
"}	c #060604",
"|	c #000000",
"1	c #767674",
"2	c #7A7E7C",
"3	c #010102",
"4	c #151517",
"5	c #E7E7E7",
"6	c #979797",
"7	c #191919",
"8	c #111111",
"9	c #080808",
"0	c #010103",
"a	c #727274",
"b	c #027204",
"c	c #02CE04",
"d	c #129614",
"e	c #0BB20C",
"f	c #005600",
"g	c #02A604",
"h	c #06C20C",
"i	c #168C14",
"j	c #1A7A1C",
"k	c #022604",
"l	c #061304",
"m	c #129A14",
"n	c #025C04",
"o	c #026C04",
"p	c #028C02",
"q	c #06BD0C",
"r	c #727674",
"s	c #0A220C",
"t	c #6E6E6E",
"u	c #061A04",
"v	c #1A1A1C",
"w	c #1A1A1A",
"x	c #12A614",
"y	c #007001",
"z	c #006300",
"A	c #016B02",
"B	c #005C00",
"C	c #05AA05",
"D	c #6A6A6B",
"E	c #024204",
"F	c #646464",
"G	c #5E5E5D",
"H	c #565654",
"I	c #525654",
"J	c #515253",
"K	c #D7D7D7",
"L	c #9F9F9F",
"M	c #BFBFBF",
"N	c #AFAFAF",
"O	c #7F7F7F",
"P	c #A7A7A7",
"Q	c #8F8F8F",
"R	c #6A6E6C",
"..........+++....+..+++..+++.......+++++++......+++++++....++@",
"+#$$#%&&&******===-----;;;;>,,,''')'!)))))~~{{{]{{]]]]]......^",
".##$%%&&&%&**=*=*===--;;;>;>>,,,'''''')))~~~~{{{]{{]]]]]...../",
".$$%%&&&&*****=*==---;-;>;>>((,'''))))))~)~~~~{]~]]]]]...]..+^",
".$%*//^^/^//__:__////^^/^^^^^//^///^/^^^^^/^^//^/^^^^///^<++</",
".%$*^[[}[}[[[[[[[}[[[[[}}[[[[[[[[[[[[[}[[[|||||||||||||[[12<<^",
".%$*^[[[[[[[[[[[[[[[[[34}[565*=[5&7[[[[[[[|||||||||||||[[1<<</",
".#*=^[[[[[[[[[[[[[[[[[[8||||||||||9[[[[[[0|||||||||||||[[a<<1^",
".$%*^[[[[[[[[[[[[[[[[[||||||||||||||bccccdedffebgghij[|[[1<<1/",
".&*-^[[[[[[[[[[[[[[[[[||||||||||||||[[[[[|k[}[[[[[[[[l|[[1111^",
".&&=^[[[[[[[[[[[[[[[[[||||||||||||||bcmedjffnoebpqg||[|[[11rr/",
".&*-^[[[[[[[[[[[[[[[[[||||||||||||||[[[[[}|s[[[[[k|}[l|[[11at^",
".&*-^[[[[[[[[[[[[[[[[[||||||||||||||bccdeccdnbebpqcciu|[[111a/",
".**-^[[[[[[[[[[[[[[[[[||||||||||||||[[[[[[}[[[[[[[[[[vw[[aatt^",
".**-^[[[[[[[[[[[[[[[[[||||||||||||||[[[[[[}[[[[[[[[[[l|[[aatt/",
".**>^[[[[[[[[[[[[||||[[[[[[[[[[[[[[[[[[[[[}[[[[[[[[[[[[[[1att^",
".**>^[[[[[[[[[[[|xccyczAAzAAzzAByf[fpCCCp[[[[[[[[[[[[[[[[1aDD/",
"+==;^[[[[[[[[[[[|[[[|[[[[[[[||||||[[[[[[[[[[[[[[[[[[[[[[[attD^",
".*=>^[[[[[[[[[[[|xcxyccyycc[zzAByf|||||||[E[[[[[[[[[[[[[[aDDD/",
"2==>^[[[[[[[[[[[|[[[[[|[[[[[||||||[[[[[[[[[[[[[[[[[[[[[[[1ttF^",
"+-->^[[[[[[[[[[[|xxcxccxxccxzzAByf[fpCCCp[[[[[[[[[[[[[[[[rDDF/",
".=-'^[[[[[[[[[[[[[|||||[[[[[||||||[[[[[[[[E[[[[[[[[[[[[[[aDFD^",
"2--,^[[[[[[[[[[[[xxcxczzAByfzzAByf[fpCCCp[[[[[[[[[[[[[[[[1DFF/",
"+;;'^[[[[[[[[[[[|[[[[[[[[[[[[[[[[[[[[[[[[[[[[[[[[[[[[[[[[aFGF^",
".-;,^[[[[[[[[[[[|xxcxccxxccxzzAByf[fpCCCp[E[[[[[[[[[[[[[[aFFF/",
"+;;!^[[[[[[[[[[[[[[[[[[[[[[[[[[[[[[[[[[[[[[[[[[[[[[[[[[[[1FGG^",
"+;;'^[[[[[[[[[[[[[[[[[[[[[[[[[[[[[[[[[[[[[[[[[[[[[[[[[[[[1F@G/",
"+>,)^[[[[[[[[[[[[[[[[[[[[[[[[[[[[[[[[[[[[[[[[[[[[[[[[[[[[1FGG^",
"+>>)^[[[[[[[[[[[[[[[[[[[[[[[[[[[[[[[[[[[[[[[[[[[[[[[[[[[[rF@@/",
"<>>)^[[[[[[[[[[[[[[[[[[[[[[[[[[[[[[[[[[[[[[[[[[[[[[[[[[[[1G@@^",
"+(,)^[[[[[[[[[[[[[[[[[[[[[[[[[[[[[[[[[[[[[[[[[[[[[[[[[[[[1G@@/",
"<,,)^[[[[[[[[[[[[[[[[[[[[[[[[[[[[[[[[[[[[[[[[[[[[[[[[[[[[aG@H^",
"<',~^[[[[[[[[[[[[[[[[[[[[[[[[[[[[[[[[[[[[[[[[[[[[[[[[[[[[1@HH/",
"2,))^[[[[[[[[[[[[[[[[[[[[[[[[[[[[[[[[[[[[[[[[[[[[[[[[[[[[a@HI^",
"<'!~^[[[[[[[[[[[[[[[[[[[[[[[[[[[[[[[[[[[[[[[[[[[[[[[[[[[[a@JJ/",
"<''~^[[[[[[[[[[[[[[[[[[[[[[[[[[[[[[[[[[[[[[[[[[[[[[[[[[[[1HJJ^",
"<))~^[[[[[[[[[[[[[[[[[[[[[[[[[[[[[[[[[[[[[[[[[[[[[[[[[[[[1HJJ/",
"<)!]^[[[[[[[[[[[[[[[[[[[[[[[[[[[[[[[[[[[[[[[[[[[[[[[[[[[[1H::^",
"2)){^[[[[[[[[[[[[[[[[[[[[[[[[[[[[[[[[[[[[[[[[[[[[[[[[[[[[1H::/",
"1))]^[[[[[[[[[[[[[[[[[[[[[[[[[[[[[[[[[[[[[[[[[[[[[[[[[[[[1J::^",
"1))]^[[[[[[[[[[[[[[[[[[[[[[[[[[[[[[[[[[[[[[[[[[[[[[[[[[[[1:__/",
"1)~{^[KLM|||||||||||||||||||||||||KNOMPMQOPKO|KOMOMOK||||aJ__^",
"1~~]^[|||||||||||||||||||||||||||||||||||||||||||||||||||1:__/",
"a~{]_+++++++++++++++++++++++++++++++++++++++++++++++++++++:__^",
"R~]]]]]]].....+.2++<<<111aaattttDDFFFFGFFGGG@@@IHIJJJ:::___/_/",
"F{~{]]]]]].]....++<2<1<1a1atatRDDFDFFFFFGGG@@@I@HJHJ:J::::____",
"G{]~{]].]].]...++++<<<111rraaRtttDRFFFFGFGGG@@@HHHIHJJ::___///",
"G~~]]]]]]....+..++<2<r<raaaRtttDDFFDFFGFFGGG@@H@HJJJ:::_:_____"};
